<svg width="45" height="56" viewBox="0 0 45 56" fill="none" xmlns="http://www.w3.org/2000/svg">
<path d="M37.74 14.55C37.74 16.09 37.8567 17.63 38.09 19.17C38.3233 20.6633 38.6033 22.04 38.93 23.3C39.3033 24.5133 39.7 25.54 40.12 26.38C40.54 27.22 40.9367 27.7567 41.31 27.99C40.47 28.83 39.77 29.81 39.21 30.93C38.6967 32.0033 38.2767 33.1467 37.95 34.36C37.67 35.5733 37.4833 36.8333 37.39 38.14C37.2967 39.4 37.25 40.6367 37.25 41.85C37.25 42.55 37.25 43.18 37.25 43.74C37.2967 44.2533 37.3433 44.6967 37.39 45.07C38.1833 45.2567 38.9533 45.5367 39.7 45.91C40.4467 46.2833 41.1233 46.82 41.73 47.52C42.3833 48.22 42.92 49.1067 43.34 50.18C43.8067 51.2533 44.11 52.56 44.25 54.1C41.45 53.26 39 52.6767 36.9 52.35C34.8 52.0233 32.8633 51.86 31.09 51.86C26.2833 51.86 22.3167 52.2567 19.19 53.05C16.0633 53.89 13.9167 54.66 12.75 55.36C12.0967 53.96 10.86 52.4433 9.04 50.81C7.22 49.13 5.19 47.3567 2.95 45.49C3.04333 44.8367 3.11333 44.0667 3.16 43.18C3.20667 42.2467 3.23 41.4533 3.23 40.8C3.23 39.2133 3.18333 37.6967 3.09 36.25C2.99667 34.7567 2.83333 33.4267 2.6 32.26C2.41333 31.0467 2.18 30.0433 1.9 29.25C1.62 28.41 1.29333 27.85 0.92 27.57C2.18 25.9367 3.09 23.9767 3.65 21.69C4.21 19.3567 4.49 16.86 4.49 14.2C4.49 11.7733 4.18667 9.46333 3.58 7.27C3.02 5.07666 2.04 2.97666 0.64 0.969998C2.74 1.15666 4.53667 1.39 6.03 1.67C7.52333 1.90333 8.78333 2.37 9.81 3.07C10.8367 3.77 11.6767 4.82 12.33 6.22C13.03 7.57333 13.6133 9.44 14.08 11.82C14.08 16.9067 13.8933 21.8067 13.52 26.52C13.1467 31.2333 12.8667 36.0633 12.68 41.01L18 47.52C19.12 46.82 20.4733 46.2133 22.06 45.7C23.6933 45.1867 25.5133 44.8833 27.52 44.79C27.94 43.6233 28.22 41.92 28.36 39.68C28.5467 37.44 28.64 34.8733 28.64 31.98C28.6867 29.0867 28.71 25.96 28.71 22.6C28.71 19.24 28.7333 15.81 28.78 12.31C28.64 8.90333 28.43 5.28666 28.15 1.46C30.8567 2.34666 33.5633 2.79 36.27 2.79C37.4833 2.79 38.7667 2.69667 40.12 2.51C41.4733 2.27667 43.0133 1.92666 44.74 1.46C44.6 2.90666 44.2967 4.16666 43.83 5.24C43.41 6.31333 42.8733 7.22333 42.22 7.97C41.6133 8.67 40.9133 9.23 40.12 9.65C39.3733 10.07 38.6267 10.35 37.88 10.49C37.8333 10.8633 37.7867 11.3533 37.74 11.96C37.74 12.5667 37.74 13.43 37.74 14.55Z" fill="#37383F"/>
</svg>
