<svg width="369" height="99" viewBox="0 0 369 99" fill="none" xmlns="http://www.w3.org/2000/svg">
<g filter="url(#filter0_i_1_7)">
<path d="M53.2 21.5C53.2 23.7 53.3667 25.9 53.7 28.1C54.0333 30.2333 54.4333 32.2 54.9 34C55.4333 35.7333 56 37.2 56.6 38.4C57.2 39.6 57.7667 40.3667 58.3 40.7C57.1 41.9 56.1 43.3 55.3 44.9C54.5667 46.4333 53.9667 48.0667 53.5 49.8C53.1 51.5333 52.8333 53.3333 52.7 55.2C52.5667 57 52.5 58.7667 52.5 60.5C52.5 61.5 52.5 62.4 52.5 63.2C52.5667 63.9333 52.6333 64.5667 52.7 65.1C53.8333 65.3667 54.9333 65.7667 56 66.3C57.0667 66.8333 58.0333 67.6 58.9 68.6C59.8333 69.6 60.6 70.8667 61.2 72.4C61.8667 73.9333 62.3 75.8 62.5 78C58.5 76.8 55 75.9667 52 75.5C49 75.0333 46.2333 74.8 43.7 74.8C36.8333 74.8 31.1667 75.3667 26.7 76.5C22.2333 77.7 19.1667 78.8 17.5 79.8C16.5667 77.8 14.8 75.6333 12.2 73.3C9.6 70.9 6.7 68.3667 3.5 65.7C3.63333 64.7667 3.73333 63.6667 3.8 62.4C3.86667 61.0667 3.9 59.9333 3.9 59C3.9 56.7333 3.83333 54.5667 3.7 52.5C3.56667 50.3667 3.33333 48.4667 3 46.8C2.73333 45.0667 2.4 43.6333 2 42.5C1.6 41.3 1.13333 40.5 0.6 40.1C2.4 37.7667 3.7 34.9667 4.5 31.7C5.3 28.3667 5.7 24.8 5.7 21C5.7 17.5333 5.26667 14.2333 4.4 11.1C3.6 7.96666 2.2 4.96666 0.2 2.1C3.2 2.36666 5.76667 2.7 7.9 3.1C10.0333 3.43333 11.8333 4.09999 13.3 5.09999C14.7667 6.1 15.9667 7.6 16.9 9.6C17.9 11.5333 18.7333 14.2 19.4 17.6C19.4 24.8667 19.1333 31.8667 18.6 38.6C18.0667 45.3333 17.6667 52.2333 17.4 59.3L25 68.6C26.6 67.6 28.5333 66.7333 30.8 66C33.1333 65.2667 35.7333 64.8333 38.6 64.7C39.2 63.0333 39.6 60.6 39.8 57.4C40.0667 54.2 40.2 50.5333 40.2 46.4C40.2667 42.2667 40.3 37.8 40.3 33C40.3 28.2 40.3333 23.3 40.4 18.3C40.2 13.4333 39.9 8.26666 39.5 2.79999C43.3667 4.06666 47.2333 4.7 51.1 4.7C52.8333 4.7 54.6667 4.56667 56.6 4.3C58.5333 3.96667 60.7333 3.46666 63.2 2.79999C63 4.86666 62.5667 6.66666 61.9 8.2C61.3 9.73333 60.5333 11.0333 59.6 12.1C58.7333 13.1 57.7333 13.9 56.6 14.5C55.5333 15.1 54.4667 15.5 53.4 15.7C53.3333 16.2333 53.2667 16.9333 53.2 17.8C53.2 18.6667 53.2 19.9 53.2 21.5ZM118.098 62C117.765 55.4 117.498 49.0667 117.298 43C117.165 36.9333 117.032 31.5667 116.898 26.9C116.832 22.2333 116.765 18.5 116.698 15.7C116.698 12.9 116.698 11.4667 116.698 11.4C116.365 7.33333 114.265 4.53333 110.398 3C111.065 3.06666 111.698 3.1 112.298 3.1C112.965 3.1 113.632 3.1 114.298 3.1C117.298 3.1 120.032 2.96666 122.498 2.7C125.032 2.36666 127.332 2.03333 129.398 1.7C131.465 1.36666 133.332 1.06666 134.998 0.799996C136.732 0.466663 138.332 0.299996 139.798 0.299996C140.598 0.299996 141.365 0.399997 142.098 0.599998C138.098 3.46666 134.998 6.6 132.798 10C130.665 13.3333 129.598 17.1 129.598 21.3C129.598 26.2333 131.232 31.8333 134.498 38.1C132.965 41.9667 131.698 46.1333 130.698 50.6C129.765 55.0667 129.298 59.5333 129.298 64C129.298 65.9333 129.365 68.1667 129.498 70.7C129.698 73.1667 130.032 75.6 130.498 78C132.498 80.1333 134.265 81.8 135.798 83C137.398 84.2 138.832 85.1 140.098 85.7C141.365 86.3 142.532 86.7 143.598 86.9C144.732 87.1 145.832 87.2667 146.898 87.4L144.298 80.8C146.565 82.0667 148.832 83.2667 151.098 84.4C153.365 85.5333 155.698 86.5333 158.098 87.4C160.498 88.2667 162.998 88.9333 165.598 89.4C168.265 89.9333 171.098 90.2 174.098 90.2C176.098 90.2 178.165 90.1333 180.298 90C182.498 89.8667 184.798 89.6333 187.198 89.3C181.332 91.6333 175.798 93.3 170.598 94.3C165.465 95.3667 160.598 95.9 155.998 95.9C150.132 95.9 144.698 95.0667 139.698 93.4C134.765 91.7333 130.165 89.4667 125.898 86.6C121.698 83.8 117.832 80.5333 114.298 76.8C110.832 73.1333 107.632 69.2667 104.698 65.2C101.832 61.0667 99.2318 56.9 96.8984 52.7C94.6318 48.5 92.5984 44.5 90.7984 40.7V50.9C90.7984 55.0333 90.9318 58.5 91.1984 61.3C91.4651 64.1 91.8984 66.5333 92.4984 68.6C93.0984 70.6667 93.8651 72.5 94.7984 74.1C95.7318 75.6333 96.8651 77.2 98.1984 78.8C96.7318 78.4 95.4318 78 94.2984 77.6C93.2318 77.2 92.1651 76.7333 91.0984 76.2C90.0984 75.6667 89.0318 75 87.8984 74.2C86.8318 73.4 85.5651 72.4 84.0984 71.2C82.2984 74.4 79.8984 77.1667 76.8984 79.5C73.8984 81.8333 69.8651 83.8333 64.7984 85.5C66.7984 83.5667 68.6651 81.3667 70.3984 78.9C72.1318 76.5 73.6318 73.9333 74.8984 71.2C76.2318 68.4 77.2651 65.5333 77.9984 62.6C78.7984 59.6667 79.1984 56.7 79.1984 53.7C79.1984 50.9 78.8318 48.2 78.0984 45.6C77.4318 43 76.2984 40.5 74.6984 38.1C77.9651 31.8333 79.5984 26.2333 79.5984 21.3C79.5984 17.1 78.4984 13.3333 76.2984 10C74.1651 6.6 71.0984 3.46666 67.0984 0.599998C67.7651 0.399997 68.5318 0.299996 69.3984 0.299996C70.7318 0.299996 72.2318 0.466663 73.8984 0.799996C75.6318 1.06666 77.4984 1.36666 79.4984 1.7C81.5651 2.03333 83.7651 2.36666 86.0984 2.7C88.4984 2.96666 91.0651 3.1 93.7984 3.1C94.4651 3.1 95.0984 3.1 95.6984 3.1C96.3651 3.1 97.0318 3.06666 97.6984 3C94.0984 4.4 92.0318 6.86666 91.4984 10.4C92.6984 13.4 94.1318 16.8667 95.7984 20.8C97.5318 24.7333 99.4318 28.8667 101.498 33.2C103.632 37.5333 105.932 41.9333 108.398 46.4C110.865 50.8 113.432 55 116.098 59L118.098 62ZM176.956 1.1C175.556 2.03333 174.356 3.3 173.356 4.9C172.423 6.43333 171.656 8.13333 171.056 10C170.523 11.8 170.123 13.7 169.856 15.7C169.59 17.6333 169.456 19.5 169.456 21.3C169.456 22.5667 169.49 23.9333 169.556 25.4C169.69 26.8 169.856 28.2667 170.056 29.8C170.323 31.2667 170.623 32.7333 170.956 34.2C171.356 35.6 171.823 36.9 172.356 38.1C171.29 39.9 170.556 42.0667 170.156 44.6C169.823 47.1333 169.656 49.6667 169.656 52.2C169.656 56.4667 170.19 60.5333 171.256 64.4C172.323 68.2 174.556 71.9333 177.956 75.6C174.356 75.1333 171.19 74.8333 168.456 74.7C165.79 74.5 163.356 74.4 161.156 74.4C158.156 74.4 155.556 74.5 153.356 74.7C151.156 74.9 148.956 75.1667 146.756 75.5C148.156 74.6333 149.456 73.5 150.656 72.1C151.856 70.6333 152.89 69.0333 153.756 67.3C154.623 65.5667 155.29 63.7333 155.756 61.8C156.29 59.8667 156.556 57.9667 156.556 56.1C156.556 52.7 156.156 49.4 155.356 46.2C154.556 42.9333 153.29 40.2333 151.556 38.1C153.423 34.6333 154.656 31.4667 155.256 28.6C155.856 25.7333 156.156 22.7667 156.156 19.7C156.156 17.8333 156.056 15.8333 155.856 13.7C153.256 12.6333 151.49 10.9667 150.556 8.7C149.623 6.36666 149.023 3.8 148.756 0.999999C150.956 1.6 152.99 2.03333 154.856 2.29999C156.79 2.56666 158.623 2.7 160.356 2.7C163.423 2.7 166.256 2.53333 168.856 2.2C171.456 1.8 174.156 1.43333 176.956 1.1ZM186.905 75C187.905 74.4 188.771 73.2667 189.505 71.6C190.305 69.9333 190.971 68.0333 191.505 65.9C192.105 63.7667 192.538 61.5667 192.805 59.3C193.071 56.9667 193.205 54.8333 193.205 52.9C193.205 49.9 192.871 47.0333 192.205 44.3C191.605 41.5667 190.738 39.5 189.605 38.1C190.671 37.0333 191.538 35.6333 192.205 33.9C192.938 32.1 193.505 30.2 193.905 28.2C194.305 26.1333 194.571 24.0333 194.705 21.9C194.838 19.7667 194.905 17.7667 194.905 15.9C194.905 14.3667 194.871 13.0333 194.805 11.9C194.738 10.7667 194.671 9.9 194.605 9.3C193.071 8.76667 191.471 7.66666 189.805 5.99999C188.205 4.33333 187.005 2.53333 186.205 0.599998C190.471 1.06666 194.505 1.4 198.305 1.6C202.171 1.73333 205.805 1.79999 209.205 1.79999C216.471 1.79999 222.338 1.56666 226.805 1.1C231.271 0.633329 234.805 0.399995 237.405 0.399995C237.938 0.399995 238.405 0.433328 238.805 0.499994C239.205 0.499994 239.571 0.533328 239.905 0.599998C239.505 1.4 239.071 2.89999 238.605 5.09999C238.205 7.3 237.805 9.7 237.405 12.3C237.005 14.9 236.638 17.4333 236.305 19.9C236.038 22.3667 235.838 24.2333 235.705 25.5L235.005 25.8C232.671 24.0667 230.971 22.1667 229.905 20.1C228.905 17.9667 228.138 15.3667 227.605 12.3C226.671 11.5667 225.505 11.1 224.105 10.9C222.705 10.7 220.938 10.6 218.805 10.6C217.071 10.6 215.405 10.6333 213.805 10.7C212.205 10.7667 210.938 10.8 210.005 10.8C209.671 12.7333 209.371 14.9667 209.105 17.5C208.905 20.0333 208.705 22.7333 208.505 25.6C208.371 28.4667 208.238 31.4667 208.105 34.6C208.038 37.6667 208.005 40.7333 208.005 43.8C208.005 48 208.038 52 208.105 55.8C208.238 59.5333 208.438 62.8 208.705 65.6L225.605 67.3C226.538 63.1667 228.171 59.5 230.505 56.3C232.905 53.1 235.471 50 238.205 47L238.805 47.2C238.605 48.7333 238.471 50.2667 238.405 51.8C238.338 53.2667 238.305 54.7 238.305 56.1C238.305 59.5667 238.471 62.7 238.805 65.5C239.138 68.3 239.538 70.4 240.005 71.8C238.871 71.9333 237.738 72.1333 236.605 72.4C235.538 72.6 234.371 72.9667 233.105 73.5C231.838 74.0333 230.471 74.7667 229.005 75.7C227.605 76.6333 226.038 77.8333 224.305 79.3C218.705 77.6333 213.171 76.3667 207.705 75.5C202.238 74.7 197.305 74.3 192.905 74.3C190.771 74.3 188.805 74.6333 187.005 75.3L186.905 75ZM324.607 92.3C319.54 94.8333 314.807 96.4333 310.407 97.1C306.007 97.7667 302.007 98.1 298.407 98.1C294.74 98.1 291.474 97.6333 288.607 96.7C285.74 95.7667 283.107 94.5667 280.707 93.1C278.374 91.7 276.207 90.1667 274.207 88.5C272.207 86.8333 270.24 85.2667 268.307 83.8C266.374 82.4 264.407 81.2333 262.407 80.3C260.474 79.3667 258.34 78.9 256.007 78.9C253.874 78.9 251.707 79.1 249.507 79.5C252.174 76.3 254.14 72.5333 255.407 68.2C256.674 63.8 257.307 59.2 257.307 54.4C257.307 53 257.24 51.5667 257.107 50.1C256.974 48.5667 256.707 47.1 256.307 45.7C255.974 44.2333 255.44 42.8667 254.707 41.6C254.04 40.2667 253.14 39.1 252.007 38.1C253.874 34.6333 255.14 31.4667 255.807 28.6C256.54 25.7333 256.907 22.7667 256.907 19.7C256.907 16.5667 256.707 14.1667 256.307 12.5C255.974 10.7667 255.407 9.4 254.607 8.4C253.807 7.4 252.774 6.56666 251.507 5.9C250.307 5.16666 248.807 4.2 247.007 3C248.274 3.13333 249.474 3.23333 250.607 3.3C251.807 3.36667 252.974 3.4 254.107 3.4C256.774 3.4 259.24 3.26666 261.507 3C263.774 2.73333 265.907 2.43333 267.907 2.1C269.907 1.76666 271.84 1.46666 273.707 1.2C275.574 0.933329 277.474 0.799996 279.407 0.799996C280.74 0.799996 282.174 0.899996 283.707 1.1C282.04 1.1 280.44 1.73333 278.907 3C277.44 4.26666 276.107 5.9 274.907 7.9C273.774 9.83333 272.84 12 272.107 14.4C271.44 16.7333 271.107 19.0333 271.107 21.3V46.6C271.107 48.8 271.174 50.9 271.307 52.9C271.507 54.8333 271.74 56.6 272.007 58.2C272.34 59.7333 272.707 61.0667 273.107 62.2C273.507 63.3333 273.94 64.1333 274.407 64.6C273.274 65.0667 271.94 65.7 270.407 66.5C268.94 67.2333 267.807 68.3667 267.007 69.9C267.407 71.2333 268.574 72.9 270.507 74.9C272.507 76.8333 274.807 78.7667 277.407 80.7C280.007 82.7 282.674 84.5 285.407 86.1C288.207 87.7 290.574 88.8 292.507 89.4C291.64 88.2667 290.774 86.9333 289.907 85.4C289.107 83.9333 288.44 82.6333 287.907 81.5C290.974 83.3667 293.807 84.9333 296.407 86.2C299.007 87.4667 301.44 88.5 303.707 89.3C306.04 90.1 308.274 90.6667 310.407 91C312.54 91.3333 314.707 91.5 316.907 91.5C318.04 91.5 319.207 91.4333 320.407 91.3C321.607 91.2333 322.874 91.1333 324.207 91L324.607 92.3ZM316.505 72.3C317.372 70.9 318.139 69.3667 318.805 67.7C319.472 65.9667 320.005 64.2 320.405 62.4C320.805 60.5333 321.105 58.6667 321.305 56.8C321.572 54.9333 321.739 53.1333 321.805 51.4C319.939 49.4667 318.072 47.5333 316.205 45.6C314.405 43.6 312.539 42.0333 310.605 40.9C310.605 37.7667 310.005 34.3 308.805 30.5C307.605 26.6333 305.972 22.8667 303.905 19.2C301.905 15.4667 299.605 12.0333 297.005 8.9C294.405 5.7 291.705 3.19999 288.905 1.39999C292.105 1.39999 294.672 1.53333 296.605 1.79999C298.539 2 300.105 2.33333 301.305 2.79999C302.505 3.2 303.439 3.7 304.105 4.3C304.772 4.83333 305.439 5.43333 306.105 6.1C307.039 4.43333 308.605 3.2 310.805 2.4C313.005 1.6 315.405 1.13333 318.005 0.999999C317.205 2.13333 316.505 3.4 315.905 4.8C315.372 6.13333 315.105 7.5 315.105 8.9C315.105 9.23333 315.105 9.53333 315.105 9.8C315.172 10.0667 315.239 10.3667 315.305 10.7L325.905 35.5L329.705 39.4L333.405 35.6L343.605 10.7C343.672 10.3667 343.705 10.0667 343.705 9.8C343.705 9.53333 343.705 9.23333 343.705 8.9C343.705 7.43333 343.272 6.03333 342.405 4.7C341.605 3.36666 340.772 2.13333 339.905 0.999999C340.972 1.53333 342.105 1.96666 343.305 2.29999C344.505 2.63333 345.705 2.89999 346.905 3.1C348.105 3.23333 349.239 3.33333 350.305 3.4C351.372 3.46666 352.305 3.5 353.105 3.5C354.505 3.5 355.739 3.36666 356.805 3.1C357.939 2.83333 359.072 2.56666 360.205 2.29999C361.405 1.96666 362.672 1.66666 364.005 1.39999C365.339 1.13333 366.972 0.999999 368.905 0.999999C367.105 2.13333 365.272 3.7 363.405 5.7C361.539 7.7 359.739 9.93333 358.005 12.4C356.272 14.8667 354.605 17.4667 353.005 20.2C351.472 22.8667 350.105 25.4667 348.905 28C347.772 30.5333 346.872 32.9 346.205 35.1C345.539 37.2333 345.205 39 345.205 40.4C343.205 41.6667 341.505 43.3667 340.105 45.5C338.705 47.5667 337.272 49.5 335.805 51.3C335.872 53.3 336.039 55.3667 336.305 57.5C336.639 59.5667 337.039 61.5667 337.505 63.5C338.039 65.4333 338.605 67.2 339.205 68.8C339.872 70.3333 340.572 71.5 341.305 72.3C338.305 74.2333 335.905 76.1333 334.105 78C332.305 79.8667 330.872 82.2 329.805 85C329.139 82.2667 327.505 79.8333 324.905 77.7C322.372 75.6333 319.572 73.8333 316.505 72.3Z" fill="white"/>
</g>
<defs>
<filter id="filter0_i_1_7" x="0.200012" y="0.299988" width="368.705" height="101.8" filterUnits="userSpaceOnUse" color-interpolation-filters="sRGB">
<feFlood flood-opacity="0" result="BackgroundImageFix"/>
<feBlend mode="normal" in="SourceGraphic" in2="BackgroundImageFix" result="shape"/>
<feColorMatrix in="SourceAlpha" type="matrix" values="0 0 0 0 0 0 0 0 0 0 0 0 0 0 0 0 0 0 127 0" result="hardAlpha"/>
<feOffset dy="4"/>
<feGaussianBlur stdDeviation="2"/>
<feComposite in2="hardAlpha" operator="arithmetic" k2="-1" k3="1"/>
<feColorMatrix type="matrix" values="0 0 0 0 0 0 0 0 0 0 0 0 0 0 0 0 0 0 0.25 0"/>
<feBlend mode="normal" in2="shape" result="effect1_innerShadow_1_7"/>
</filter>
</defs>
</svg>
